<?xml version="1.0" encoding="UTF-8" standalone="no"?>
<svg
   xmlns:dc="http://purl.org/dc/elements/1.1/"
   xmlns:cc="http://creativecommons.org/ns#"
   xmlns:rdf="http://www.w3.org/1999/02/22-rdf-syntax-ns#"
   xmlns:svg="http://www.w3.org/2000/svg"
   xmlns="http://www.w3.org/2000/svg"
   xmlns:sodipodi="http://sodipodi.sourceforge.net/DTD/sodipodi-0.dtd"
   xmlns:inkscape="http://www.inkscape.org/namespaces/inkscape"
   height="215pt"
   width="215pt"
   xlink="http://www.w3.org/1999/xlink"
   version="1.1"
   id="svg2"
   inkscape:version="0.91 r13725"
   sodipodi:docname="cutup.svg">
  <metadata
     id="metadata28">
    <rdf:RDF>
      <cc:Work
         rdf:about="">
        <dc:format>image/svg+xml</dc:format>
        <dc:type
           rdf:resource="http://purl.org/dc/dcmitype/StillImage" />
        <dc:title />
      </cc:Work>
    </rdf:RDF>
  </metadata>
  <defs
     id="defs26" />
  <sodipodi:namedview
     pagecolor="#ffffff"
     bordercolor="#666666"
     borderopacity="1"
     objecttolerance="10"
     gridtolerance="10"
     guidetolerance="10"
     inkscape:pageopacity="0"
     inkscape:pageshadow="2"
     inkscape:window-width="1920"
     inkscape:window-height="1055"
     id="namedview24"
     showgrid="false"
     inkscape:zoom="1.2430331"
     inkscape:cx="110.20017"
     inkscape:cy="139.53211"
     inkscape:window-x="0"
     inkscape:window-y="25"
     inkscape:window-maximized="0"
     inkscape:current-layer="svg2"
     units="pt" />
  <g
     id="g5342"
     transform="translate(58.277342,0.00803544)">
    <path
       id="path4"
       d="m 74.712891,113.87891 a 48,48 0 0 0 -23.001953,6.68554 28,28 0 0 0 12.576171,11.66211 32.000002,32.000002 0 0 1 43.810551,29.64844 l 16,0 A 48,48 0 0 0 74.712891,113.87891 Z M 34.5,137.98828 A 48,48 0 0 0 28.097656,161.875 l 0,55 a 48.000002,48.000002 0 0 0 96.000004,0 l -16,0 a 32.000002,32.000002 0 0 1 -64.000004,0 l 0,-55 A 32.000002,32.000002 0 0 1 46.539062,149.64258 52,52 0 0 1 34.5,137.98828 Z m 1.582031,22.87305 a 1.0001,1.0001 0 0 1 1.015625,1.01367 l 0,55 a 1.0001,1.0001 0 1 1 -2,0 l 0,-55 a 1.0001,1.0001 0 0 1 0.984375,-1.01367 z"
       style="fill:#000000;stroke:none;stroke-width:0"
       inkscape:connector-curvature="0" />
    <path
       id="path6"
       d="M 74.712891,3.8789062 A 48,48 0 0 0 28.097656,51.875 l 0,55 A 48,48 0 0 0 100.46875,148.12109 28,28 0 0 0 87.904297,136.52148 32,32 0 0 1 44.097656,106.875 l 0,-55 a 32.000002,32.000002 0 0 1 64.000004,0 l 16,0 A 48,48 0 0 0 74.712891,3.8789062 Z M 108.09766,106.875 a 32,32 0 0 1 -2.46289,12.27539 52,52 0 0 1 12.04687,11.60742 48,48 0 0 0 6.41602,-23.88281 l -16,0 z"
       style="fill:#000000;stroke:none;stroke-width:0"
       inkscape:connector-curvature="0" />
  </g>
</svg>
