<?xml version="1.0" encoding="UTF-8" standalone="no"?>
<svg
   xmlns:dc="http://purl.org/dc/elements/1.1/"
   xmlns:cc="http://creativecommons.org/ns#"
   xmlns:rdf="http://www.w3.org/1999/02/22-rdf-syntax-ns#"
   xmlns:svg="http://www.w3.org/2000/svg"
   xmlns="http://www.w3.org/2000/svg"
   xmlns:sodipodi="http://sodipodi.sourceforge.net/DTD/sodipodi-0.dtd"
   xmlns:inkscape="http://www.inkscape.org/namespaces/inkscape"
   height="215pt"
   width="215pt"
   xlink="http://www.w3.org/1999/xlink"
   version="1.1"
   id="svg2"
   inkscape:version="0.91 r13725"
   sodipodi:docname="logo.svg">
  <metadata
     id="metadata28">
    <rdf:RDF>
      <cc:Work
         rdf:about="">
        <dc:format>image/svg+xml</dc:format>
        <dc:type
           rdf:resource="http://purl.org/dc/dcmitype/StillImage" />
        <dc:title></dc:title>
      </cc:Work>
    </rdf:RDF>
  </metadata>
  <defs
     id="defs26" />
  <sodipodi:namedview
     pagecolor="#ffffff"
     bordercolor="#666666"
     borderopacity="1"
     objecttolerance="10"
     gridtolerance="10"
     guidetolerance="10"
     inkscape:pageopacity="0"
     inkscape:pageshadow="2"
     inkscape:window-width="1918"
     inkscape:window-height="650"
     id="namedview24"
     showgrid="false"
     inkscape:zoom="1.2430331"
     inkscape:cx="-110.53681"
     inkscape:cy="139.55559"
     inkscape:window-x="0"
     inkscape:window-y="25"
     inkscape:window-maximized="0"
     inkscape:current-layer="svg2"
     units="pt" />
  <path
     style="fill:#000000;stroke:none;stroke-width:0"
     inkscape:connector-curvature="0"
     d="m 28.098355,161.875 0,55 a 48,48 0 0 0 95.999995,0 l -16,0 a 32,32 0 0 1 -63.999995,0 l 0,-55 a 32,32 0 1 1 63.999995,0 l 16,0 a 48,48 0 1 0 -95.999995,0 z"
     id="path4" />
  <path
     style="fill:#000000;stroke:none;stroke-width:0"
     inkscape:connector-curvature="0"
     d="m 28.098355,51.875 0,55 a 48,48 0 0 0 95.999995,0 l -16,0 a 32,32 0 0 1 -63.999995,0 l 0,-55 a 32,32 0 1 1 63.999995,0 l 16,0 a 48,48 0 1 0 -95.999995,0 z"
     id="path6" />
  <path
     style="fill:#ffffff;stroke:none;stroke-width:0"
     inkscape:connector-curvature="0"
     d="m 28.098355,106.875 a 48,48 0 0 0 48,48 l 0,4 a 52,52 0 0 1 -52,-52 z"
     id="path8" />
  <path
     style="fill:#ffffff;stroke:none;stroke-width:0"
     inkscape:connector-curvature="0"
     d="m 44.098355,106.875 a 32,32 0 0 0 32,32 l 0,-4 a 28,28 0 0 1 -28,-28 z"
     id="path10" />
  <path
     style="fill:#ffffff;stroke:none;stroke-width:0"
     inkscape:connector-curvature="0"
     d="m 76.098355,129.875 a 32,32 0 0 1 31.999995,32 l -4,0 a 28,28 0 0 0 -27.999995,-28 z"
     id="path12" />
  <path
     style="fill:#ffffff;stroke:none;stroke-width:0"
     inkscape:connector-curvature="0"
     d="m 76.098355,113.875 a 48,48 0 0 1 47.999995,48 l 4,0 a 52,52 0 0 0 -51.999995,-52 z"
     id="path14" />
  <polyline
     style="fill:none;stroke:#ffffff;stroke-width:2;stroke-linecap:round"
     points="8.0,158.0 8.0,213.0"
     id="polyline16"
     transform="translate(28.098355,3.875)" />
  <g
     style="font-size:60.5px;font-family:'Times New Roman';fill:#000000"
     id="text18"
     transform="translate(28.098355,9.875)">
    <path
       inkscape:connector-curvature="0"
       d="m 60.104073,47.866608 0.915771,13.618408 -0.915771,0 q -1.831543,-6.11499 -5.22876,-8.803223 -3.397217,-2.688232 -8.153321,-2.688232 -3.988037,0 -7.208007,2.03833 -3.219971,2.008789 -5.081055,6.439941 -1.831543,4.431153 -1.831543,11.018799 0,5.435547 1.74292,9.423584 1.74292,3.988037 5.22876,6.11499 3.515381,2.126953 8.005615,2.126953 3.899414,0 6.883057,-1.654296 2.983642,-1.683838 6.558105,-6.646729 l 0.915772,0.59082 q -3.013184,5.346924 -7.030762,7.82837 -4.017578,2.481445 -9.541748,2.481445 -9.955322,0 -15.42041,-7.385254 -4.076661,-5.494629 -4.076661,-12.938965 0,-5.996826 2.688233,-11.018799 2.688232,-5.021972 7.385254,-7.769287 4.726562,-2.776855 10.309814,-2.776855 4.34253,0 8.566895,2.126953 1.240722,0.649902 1.772461,0.649902 0.797607,0 1.388427,-0.561279 0.768067,-0.797608 1.093018,-2.215576 l 1.033936,0 z"
       style="font-size:60.5px;font-family:'Times New Roman';fill:#000000"
       id="path4202" />
    <path
       inkscape:connector-curvature="0"
       d="m 89.70417,61.780426 0,16.395264 q 0,4.697021 0.206787,5.760498 0.236328,1.033935 0.708985,1.44751 0.502197,0.413574 1.152099,0.413574 0.915772,0 2.067871,-0.502198 l 0.413575,1.033936 -8.094239,3.338135 -1.329345,0 0,-5.730957 q -3.48584,3.78125 -5.317383,4.756103 -1.831543,0.974854 -3.869873,0.974854 -2.274658,0 -3.958496,-1.299805 -1.654297,-1.329346 -2.3042,-3.397217 -0.649902,-2.067871 -0.649902,-5.849121 l 0,-12.082275 q 0,-1.920166 -0.413574,-2.658692 -0.413574,-0.738525 -1.240723,-1.122558 -0.797607,-0.413574 -2.92456,-0.384033 l 0,-1.093018 9.482666,0 0,18.108643 q 0,3.78125 1.299804,4.96289 1.329346,1.181641 3.19043,1.181641 1.270264,0 2.865479,-0.797608 1.624755,-0.797607 3.840332,-3.042724 l 0,-15.331787 q 0,-2.3042 -0.85669,-3.101807 -0.827148,-0.827148 -3.48584,-0.88623 l 0,-1.093018 9.216797,0 z"
       style="font-size:60.5px;font-family:'Times New Roman';fill:#000000"
       id="path4204" />
    <path
       inkscape:connector-curvature="0"
       d="m 104.14973,60.982819 0,6.085449 q 3.39721,-6.085449 6.97168,-6.085449 1.62475,0 2.68823,1.004394 1.06348,0.974854 1.06348,2.274658 0,1.1521 -0.76807,1.949707 -0.76807,0.797608 -1.83154,0.797608 -1.03394,0 -2.33374,-1.004395 -1.27027,-1.033935 -1.89063,-1.033935 -0.53174,0 -1.1521,0.59082 -1.32934,1.211182 -2.74731,3.988037 l 0,12.968506 q 0,2.245117 0.56128,3.397217 0.38403,0.797607 1.35888,1.329345 0.97486,0.531739 2.8064,0.531739 l 0,1.063476 -13.854737,0 0,-1.063476 q 2.067871,0 3.072266,-0.649903 0.738525,-0.472656 1.033935,-1.506591 0.147705,-0.502198 0.147705,-2.865479 l 0,-10.48706 q 0,-4.726563 -0.206787,-5.612793 -0.177246,-0.915772 -0.708984,-1.329346 -0.502197,-0.413574 -1.270264,-0.413574 -0.915771,0 -2.067871,0.443115 l -0.29541,-1.063477 8.182857,-3.308593 1.24073,0 z"
       style="font-size:60.5px;font-family:'Times New Roman';fill:#000000"
       id="path4206" />
    <path
       inkscape:connector-curvature="0"
       d="m 131.77058,84.940582 q -4.16529,3.219971 -5.22876,3.722168 -1.59522,0.738526 -3.39722,0.738526 -2.8064,0 -4.63794,-1.920166 -1.802,-1.920166 -1.802,-5.051514 0,-1.979248 0.88623,-3.426758 1.21118,-2.008789 4.19482,-3.78125 3.01319,-1.772461 9.98487,-4.312988 l 0,-1.063477 q 0,-4.047119 -1.29981,-5.553711 -1.27026,-1.506591 -3.72217,-1.506591 -1.86108,0 -2.9541,1.004394 -1.12256,1.004395 -1.12256,2.304199 l 0.0591,1.713379 q 0,1.358887 -0.70899,2.097412 -0.67944,0.738526 -1.802,0.738526 -1.09302,0 -1.802,-0.768067 -0.67945,-0.768066 -0.67945,-2.097412 0,-2.540527 2.59961,-4.66748 2.59961,-2.126953 7.29663,-2.126953 3.60401,0 5.90821,1.211181 1.74292,0.915772 2.57007,2.865479 0.53173,1.270263 0.53173,5.199219 l 0,9.187255 q 0,3.869873 0.14771,4.756104 0.1477,0.856689 0.47266,1.152099 0.35449,0.295411 0.7976,0.295411 0.47266,0 0.82715,-0.206787 0.62036,-0.384034 2.39282,-2.156495 l 0,1.654297 q -3.30859,4.431153 -6.32177,4.431153 -1.44751,0 -2.3042,-1.004395 -0.85669,-1.004394 -0.88623,-3.426758 z m 0,-1.920166 0,-10.309814 q -4.4607,1.772461 -5.7605,2.510986 -2.33374,1.299805 -3.33814,2.717774 -1.00439,1.417968 -1.00439,3.101806 0,2.126953 1.27026,3.544922 1.27027,1.388428 2.92456,1.388428 2.24512,0 5.90821,-2.954102 z"
       style="font-size:60.5px;font-family:'Times New Roman';fill:#000000"
       id="path4208" />
    <path
       inkscape:connector-curvature="0"
       d="m 151.11994,52.88858 0,8.891846 6.32178,0 0,2.067871 -6.32178,0 0,17.547363 q 0,2.629151 0.73853,3.544922 0.76806,0.915772 1.9497,0.915772 0.97486,0 1.89063,-0.590821 0.91577,-0.620361 1.41797,-1.802002 l 1.1521,0 q -1.03394,2.89502 -2.92456,4.372071 -1.89063,1.44751 -3.89942,1.44751 -1.35888,0 -2.65869,-0.738526 -1.2998,-0.768066 -1.92016,-2.156494 -0.62037,-1.417969 -0.62037,-4.342529 l 0,-18.197266 -4.28344,0 0,-0.974853 q 1.62475,-0.649903 3.30859,-2.186036 1.71338,-1.565673 3.04273,-3.692627 0.67944,-1.122558 1.89062,-4.106201 l 0.91577,0 z"
       style="font-size:60.5px;font-family:'Times New Roman';fill:#000000"
       id="path4210" />
    <path
       inkscape:connector-curvature="0"
       d="m 164.59064,71.972076 q -0.0295,6.026368 2.92457,9.453125 2.9541,3.426758 6.94213,3.426758 2.6587,0 4.6084,-1.44751 1.97925,-1.47705 3.3086,-5.021972 l 0.91577,0.59082 q -0.62036,4.047119 -3.60401,7.385254 -2.98364,3.308594 -7.47387,3.308594 -4.87427,0 -8.36011,-3.78125 -3.4563,-3.810791 -3.4563,-10.221192 0,-6.942138 3.54492,-10.812011 3.57447,-3.899414 8.95093,-3.899414 4.54932,0 7.47388,3.013183 2.92456,2.983643 2.92456,8.005615 l -18.69947,0 z m 0,-1.713378 12.5254,0 q -0.14771,-2.59961 -0.62037,-3.663086 -0.73852,-1.654297 -2.21557,-2.59961 -1.44751,-0.945312 -3.04273,-0.945312 -2.4519,0 -4.40161,1.920166 -1.92016,1.890625 -2.24512,5.287842 z"
       style="font-size:60.5px;font-family:'Times New Roman';fill:#000000"
       id="path4212" />
    <path
       inkscape:connector-curvature="0"
       d="m 205.97761,85.797272 q -1.97925,2.067871 -3.86988,2.983642 -1.89062,0.886231 -4.07666,0.886231 -4.43115,0 -7.73974,-3.692627 -3.3086,-3.722168 -3.3086,-9.541748 0,-5.81958 3.66309,-10.634766 3.66309,-4.844726 9.42358,-4.844726 3.57447,0 5.90821,2.274658 l 0,-4.992432 q 0,-4.637939 -0.23633,-5.701416 -0.20679,-1.063476 -0.67944,-1.44751 -0.47266,-0.384033 -1.18164,-0.384033 -0.76807,0 -2.03833,0.472656 l -0.38404,-1.033935 8.0647,-3.308594 1.32935,0 0,31.283936 q 0,4.756103 0.20678,5.81958 0.23633,1.033935 0.70899,1.44751 0.50219,0.413574 1.1521,0.413574 0.7976,0 2.12695,-0.502198 l 0.32495,1.033936 -8.03516,3.338135 -1.35888,0 0,-3.869873 z m 0,-2.067871 0,-13.94336 q -0.17725,-2.008789 -1.06348,-3.663086 -0.88623,-1.654297 -2.36328,-2.481445 -1.44751,-0.856689 -2.83594,-0.856689 -2.59961,0 -4.63794,2.33374 -2.68823,3.072265 -2.68823,8.980469 0,5.967285 2.59961,9.157714 2.59961,3.160889 5.79004,3.160889 2.68823,0 5.19922,-2.688232 z"
       style="font-size:60.5px;font-family:'Times New Roman';fill:#000000"
       id="path4214" />
  </g>
  <g
     style="font-size:60.5px;font-family:'Times New Roman';fill:#000000"
     id="text20"
     transform="translate(28.098355,3.875)">
    <path
       inkscape:connector-curvature="0"
       d="m 60.104073,163.45541 0.915771,13.61841 -0.915771,0 q -1.831543,-6.11499 -5.22876,-8.80322 -3.397217,-2.68823 -8.153321,-2.68823 -3.988037,0 -7.208007,2.03833 -3.219971,2.00879 -5.081055,6.43994 -1.831543,4.43115 -1.831543,11.0188 0,5.43554 1.74292,9.42358 1.74292,3.98804 5.22876,6.11499 3.515381,2.12695 8.005615,2.12695 3.899414,0 6.883057,-1.65429 2.983642,-1.68384 6.558105,-6.64673 l 0.915772,0.59082 q -3.013184,5.34692 -7.030762,7.82837 -4.017578,2.48144 -9.541748,2.48144 -9.955322,0 -15.42041,-7.38525 -4.076661,-5.49463 -4.076661,-12.93896 0,-5.99683 2.688233,-11.0188 2.688232,-5.02198 7.385254,-7.76929 4.726562,-2.77686 10.309814,-2.77686 4.34253,0 8.566895,2.12696 1.240722,0.6499 1.772461,0.6499 0.797607,0 1.388427,-0.56128 0.768067,-0.79761 1.093018,-2.21558 l 1.033936,0 z"
       style="font-size:60.5px;font-family:'Times New Roman';fill:#000000"
       id="path4187" />
    <path
       inkscape:connector-curvature="0"
       d="m 79.21711,176.57162 q 6.144531,0 9.866699,4.66749 3.160889,3.98803 3.160889,9.15771 0,3.63354 -1.74292,7.35571 -1.74292,3.72217 -4.815186,5.6128 -3.042725,1.89062 -6.794433,1.89062 -6.114991,0 -9.718995,-4.87427 -3.042724,-4.1062 -3.042724,-9.21679 0,-3.72217 1.831543,-7.38526 1.861084,-3.69262 4.874267,-5.43554 3.013184,-1.77247 6.38086,-1.77247 z m -0.915772,1.92017 q -1.565674,0 -3.160888,0.94531 -1.565674,0.91577 -2.540528,3.24951 -0.974853,2.33375 -0.974853,5.99683 0,5.9082 2.33374,10.19165 2.363281,4.28345 6.203613,4.28345 2.865479,0 4.726563,-2.36328 1.861084,-2.36328 1.861084,-8.12378 0,-7.20801 -3.101807,-11.34375 -2.097412,-2.83594 -5.346924,-2.83594 z"
       style="font-size:60.5px;font-family:'Times New Roman';fill:#000000"
       id="path4189" />
    <path
       inkscape:connector-curvature="0"
       d="m 119.95417,177.36923 0,16.39527 q 0,4.69702 0.20679,5.76049 0.23633,1.03394 0.70898,1.44751 0.5022,0.41358 1.1521,0.41358 0.91577,0 2.06787,-0.5022 l 0.41358,1.03394 -8.09424,3.33813 -1.32935,0 0,-5.73096 q -3.48584,3.78125 -5.31738,4.75611 -1.83154,0.97485 -3.86987,0.97485 -2.27466,0 -3.9585,-1.2998 -1.6543,-1.32935 -2.304199,-3.39722 -0.649902,-2.06787 -0.649902,-5.84912 l 0,-12.08228 q 0,-1.92016 -0.413574,-2.65869 -0.413574,-0.73852 -1.240723,-1.12256 -0.797607,-0.41357 -2.92456,-0.38403 l 0,-1.09302 9.482668,0 0,18.10864 q 0,3.78125 1.2998,4.9629 1.32935,1.18164 3.19043,1.18164 1.27027,0 2.86548,-0.79761 1.62476,-0.79761 3.84033,-3.04273 l 0,-15.33178 q 0,-2.3042 -0.85669,-3.10181 -0.82715,-0.82715 -3.48584,-0.88623 l 0,-1.09302 9.2168,0 z"
       style="font-size:60.5px;font-family:'Times New Roman';fill:#000000"
       id="path4191" />
    <path
       inkscape:connector-curvature="0"
       d="m 134.39973,176.57162 0,6.08545 q 3.39721,-6.08545 6.97168,-6.08545 1.62475,0 2.68823,1.0044 1.06348,0.97485 1.06348,2.27466 0,1.1521 -0.76807,1.9497 -0.76807,0.79761 -1.83154,0.79761 -1.03394,0 -2.33374,-1.00439 -1.27027,-1.03394 -1.89063,-1.03394 -0.53174,0 -1.1521,0.59082 -1.32934,1.21118 -2.74731,3.98804 l 0,12.96851 q 0,2.24511 0.56128,3.39721 0.38403,0.79761 1.35888,1.32935 0.97486,0.53174 2.8064,0.53174 l 0,1.06347 -13.85474,0 0,-1.06347 q 2.06787,0 3.07227,-0.64991 0.73852,-0.47265 1.03393,-1.50659 0.14771,-0.5022 0.14771,-2.86548 l 0,-10.48706 q 0,-4.72656 -0.20679,-5.61279 -0.17724,-0.91577 -0.70898,-1.32935 -0.5022,-0.41357 -1.27027,-0.41357 -0.91577,0 -2.06787,0.44312 l -0.29541,-1.06348 8.18286,-3.3086 1.24073,0 z"
       style="font-size:60.5px;font-family:'Times New Roman';fill:#000000"
       id="path4193" />
    <path
       inkscape:connector-curvature="0"
       d="m 164.17707,176.57162 0,9.2168 -0.97485,0 q -1.12256,-4.34253 -2.89502,-5.9082 -1.74292,-1.56568 -4.4607,-1.56568 -2.06787,0 -3.33813,1.09302 -1.27026,1.09302 -1.27026,2.42237 0,1.65429 0.94531,2.83593 0.91577,1.21118 3.72217,2.57007 l 4.31298,2.09741 q 5.99683,2.92456 5.99683,7.71021 0,3.69263 -2.8064,5.96728 -2.77685,2.24512 -6.23315,2.24512 -2.48145,0 -5.67188,-0.88623 -0.97485,-0.29541 -1.59521,-0.29541 -0.67944,0 -1.06348,0.76807 l -0.97485,0 0,-9.65992 0.97485,0 q 0.82715,4.13575 3.16089,6.23316 2.33374,2.09741 5.22876,2.09741 2.03833,0 3.3086,-1.18164 1.2998,-1.21118 1.2998,-2.89502 0,-2.03833 -1.44751,-3.42676 -1.41797,-1.38842 -5.70142,-3.51538 -4.28344,-2.12695 -5.61279,-3.84033 -1.32934,-1.68384 -1.32934,-4.25391 0,-3.33813 2.27465,-5.58325 2.3042,-2.24512 5.93775,-2.24512 1.59521,0 3.86987,0.67945 1.50659,0.44311 2.00879,0.44311 0.47266,0 0.73853,-0.20678 0.26586,-0.20679 0.62036,-0.91578 l 0.97485,0 z"
       style="font-size:60.5px;font-family:'Times New Roman';fill:#000000"
       id="path4195" />
    <path
       inkscape:connector-curvature="0"
       d="m 174.75275,187.56088 q -0.0295,6.02637 2.92456,9.45313 2.95411,3.42676 6.94214,3.42676 2.65869,0 4.6084,-1.44751 1.97925,-1.47706 3.3086,-5.02198 l 0.91577,0.59082 q -0.62036,4.04712 -3.60401,7.38526 -2.98364,3.30859 -7.47387,3.30859 -4.87427,0 -8.36011,-3.78125 -3.4563,-3.81079 -3.4563,-10.22119 0,-6.94214 3.54492,-10.81201 3.57446,-3.89942 8.95093,-3.89942 4.54932,0 7.47388,3.01319 2.92456,2.98364 2.92456,8.00561 l -18.69947,0 z m 0,-1.71338 12.52539,0 q -0.1477,-2.59961 -0.62036,-3.66308 -0.73852,-1.6543 -2.21557,-2.59961 -1.44751,-0.94531 -3.04273,-0.94531 -2.4519,0 -4.40161,1.92016 -1.92016,1.89063 -2.24512,5.28784 z"
       style="font-size:60.5px;font-family:'Times New Roman';fill:#000000"
       id="path4197" />
    <path
       inkscape:connector-curvature="0"
       d="m 214.51496,176.57162 0,9.2168 -0.97485,0 q -1.12256,-4.34253 -2.89502,-5.9082 -1.74292,-1.56568 -4.4607,-1.56568 -2.06787,0 -3.33813,1.09302 -1.27026,1.09302 -1.27026,2.42237 0,1.65429 0.94531,2.83593 0.91577,1.21118 3.72217,2.57007 l 4.31299,2.09741 q 5.99682,2.92456 5.99682,7.71021 0,3.69263 -2.8064,5.96728 -2.77685,2.24512 -6.23315,2.24512 -2.48144,0 -5.67187,-0.88623 -0.97486,-0.29541 -1.59522,-0.29541 -0.67944,0 -1.06348,0.76807 l -0.97485,0 0,-9.65992 0.97485,0 q 0.82715,4.13575 3.16089,6.23316 2.33374,2.09741 5.22876,2.09741 2.03833,0 3.3086,-1.18164 1.2998,-1.21118 1.2998,-2.89502 0,-2.03833 -1.44751,-3.42676 -1.41797,-1.38842 -5.70141,-3.51538 -4.28345,-2.12695 -5.6128,-3.84033 -1.32934,-1.68384 -1.32934,-4.25391 0,-3.33813 2.27465,-5.58325 2.3042,-2.24512 5.93775,-2.24512 1.59521,0 3.86987,0.67945 1.50659,0.44311 2.00879,0.44311 0.47266,0 0.73853,-0.20678 0.26587,-0.20679 0.62036,-0.91578 l 0.97485,0 z"
       style="font-size:60.5px;font-family:'Times New Roman';fill:#000000"
       id="path4199" />
  </g>
  <path
     style="fill:#ffffff;stroke:none;stroke-width:0"
     inkscape:connector-curvature="0"
     d="m 62.298355,173.875 a 20,20 0 0 0 0,28.8 27.6,27.6 0 0 1 0,-28.8 z"
     id="path22" />
</svg>
